<?xml version="1.0" encoding="UTF-8"?>
<svg id="Layer_1" data-name="Layer 1" xmlns="http://www.w3.org/2000/svg" viewBox="0 0 1080 1080">
  <defs>
    <style>
      .cls-1 {
        fill: #198754;
        stroke-width: 0px;
      }
    </style>
  </defs>
  <path class="cls-1" d="M582.5,539.25c.44-34.13-8.6-67.71-26.11-97.01-3.71-6.18-7.75-12.13-12.1-17.83-15.73-20.58-35.53-37.82-58.25-50.58-62.47-33.99-137.91-33.99-200.37,0-29.17,16.22-53.56,39.81-70.74,68.41-34.65,60.33-34.5,134.55.39,194.74,17.14,28.82,41.5,52.67,70.68,69.19,62.35,33.99,137.69,33.99,200.04,0,23.12-12.98,42.81-30.41,58.25-50.86,24.81-32.84,38.68-73.48,38.21-116.06ZM450.64,504.91h-.22s8.02,47.84,7.25,65.09v.39c-2.5,36.75-25.63,68.91-59.68,82.96-4.31,1.66-8.96,3.37-13.99,4.81-16.54,4.74-33.84,6.21-50.94,4.32,5.05-42.43,26.54-81.19,59.84-107.96-19.72,3.89-37.86,13.51-52.15,27.65-8.31,8.8-15.14,18.89-20.24,29.87-4.38,8.95-7.67,18.41-9.79,28.15-8.39-23.9-9.96-49.65-4.54-74.39,14.61-63.22,78.98-112.55,162.27-124.77-18.47,28.98-20.18,49.77-17.81,63.88Z"/>
  <path class="cls-1" d="M890.95,494.71v232.79h-99.55v-210.66c.12-2.35.12-4.69,0-7.04-1.94-38.8-34.97-68.68-73.78-66.74-13.25-.23-26.34,2.91-38.05,9.12-11.02,5.96-20.11,14.94-26.21,25.89-6.53,11.84-9.81,25.19-9.52,38.71v210.72h-99.55v-7.86c0-16.75,5.82-32.92,16.22-46.06,29.74-37.57,46.48-84.75,45.99-134.31.44-38.5-9.76-76.3-29.52-109.37-5.02-8.37-10.59-16.38-16.67-23.96-10.41-12.98-16.02-29.16-16.02-45.8h0s99.55,0,99.55,0v34.74c9.26-9.58,19.91-17.71,31.58-24.12,22.99-12.4,48.78-18.68,74.89-18.25,25.53-.38,50.63,6.61,72.28,20.13,20.86,13.02,38.11,31.07,50.17,52.49,12.03,21.21,18.3,45.19,18.19,69.57Z"/>
</svg>